<svg viewBox="0 0 24 24" xmlns="http://www.w3.org/2000/svg"><g id="Layer_2" data-name="Layer 2"><g id="Layer_1-2" data-name="Layer 1"><path d="m23.62 19.05-9.33-16.44a2.56 2.56 0 0 0 -4.45 0l-9.34 16.44a2.56 2.56 0 0 0 2.23 3.82h18.66a2.56 2.56 0 0 0 2.23-3.82z" fill="#EA6947"/><path d="m13.22 19.16a1.45 1.45 0 0 1 -1 .38 1.49 1.49 0 0 1 -1-.37 1.33 1.33 0 0 1 -.44-1.05 1.41 1.41 0 0 1 1.43-1.42 1.41 1.41 0 0 1 1 .41 1.36 1.36 0 0 1 .42 1 1.34 1.34 0 0 1 -.41 1.05z" fill="#fff"/><path d="m13.6 9.64-.37 4.19a3.37 3.37 0 0 1 -.23 1.17.82.82 0 0 1 -.78.48.8.8 0 0 1 -.77-.47 4 4 0 0 1 -.27-1.23l-.27-4.08c-.05-.81-.08-1.37-.08-1.72a1.7 1.7 0 0 1 .41-1.2 1.42 1.42 0 0 1 1.08-.44 1.12 1.12 0 0 1 1.08.66 3.53 3.53 0 0 1 .26 1.52 11.3 11.3 0 0 1 -.06 1.12z" fill="#fff"/><path d="m0 0h24v24h-24z" fill="none"/></g></g></svg>