<svg id="Layer_1" enable-background="new 0 0 100 100" viewBox="0 0 100 100" xmlns="http://www.w3.org/2000/svg"><path d="m32.4019012 66.8268127c11.7052994-19.415451 43.1778183-41.8689117 60.5611572-54.1850739.969429-.6868477 2.2564163-.7039757 3.2470779-.0481148l.0000076.0000038c1.5998077 1.0591431 1.7361755 3.3570576.270462 4.5951405-20.8551025 17.6162357-45.6711159 38.6918182-53.1655769 61.907692-.2717361.841774-.8977699 1.5116119-1.7220688 1.8324661-3.8023949 1.4800568-9.6033573 4.4625015-13.0352688 6.5376205-1.4422512.8720551-3.3071594.3373718-4.0716248-1.1646881-5.316721-10.4465485-13.8642492-23.3361053-20.9552345-29.1749496-1.3073883-1.0765266-1.3830793-3.0789871-.1589661-4.2493401 14.1692448-13.546936 24.6195774 5.0047913 29.0286083 13.9484291z" fill="#83cf8f"/></svg>