<svg id="Layer_1" enable-background="new 0 0 128 128" height="512" viewBox="0 0 128 128" width="512" xmlns="http://www.w3.org/2000/svg"><g><g><path d="m108.569 109.332h-3.195v-1.537c0-2.149-1.37-3.969-3.276-4.675v-2.424l.829-3.678c.665-2.95 2.002-5.941 3.974-8.89 1.363-2.038 2.083-4.413 2.083-6.87 0-3.533-1.512-6.909-4.148-9.263-.829-.741-1.756-1.343-2.737-1.83v-48.665c0-2.757-2.243-5-5-5h-14.064c-.615-2.064-2.509-3.584-4.771-3.584h-10.766c-1.033-4.475-5.073-7.75-9.734-7.75s-8.701 3.275-9.734 7.75h-10.766c-2.261 0-4.155 1.519-4.771 3.584h-14.062c-2.757 0-5 2.243-5 5v99.333c0 2.757 2.243 5 5 5h95.626c.553 0 1-.448 1-1v-3.159h1.513c.553 0 1-.448 1-1v-2.342c-.001-4.962-4.038-9-9.001-9z" fill="#e6e7e8"/></g><g><g><g><path d="m93.098 120.833h-78.667c-2.209 0-4-1.791-4-4v-99.333c0-2.209 1.791-4 4-4h78.667c2.209 0 4 1.791 4 4v99.333c0 2.209-1.791 4-4 4z" fill="#6dc9f7"/></g><path d="m88.098 113.833h-68.667c-1.105 0-2-.895-2-2v-89.333c0-1.105.895-2 2-2h68.667c1.104 0 2 .895 2 2v89.333c0 1.105-.896 2-2 2z" fill="#d4fbff"/><path d="m62.667 9.917c-.61-4.377-4.358-7.75-8.903-7.75s-8.293 3.373-8.903 7.75h-11.597c-2.209 0-4 1.791-4 4v8.5c0 1.105.896 2 2 2h45c1.105 0 2-.895 2-2v-8.5c0-2.209-1.791-4-4-4z" fill="#0089ef"/><circle cx="53.764" cy="11.167" fill="#fff" r="3"/></g><g><path d="m103.983 77.26c0-6.744-5.848-12.122-12.75-11.339-5.185.588-9.373 4.75-9.995 9.931-.348 2.902.398 5.615 1.876 7.791 1.852 2.726 3.294 5.708 4.018 8.922l1.63 7.231h7.61l1.578-6.996c.748-3.318 2.228-6.399 4.118-9.226 1.21-1.807 1.915-3.977 1.915-6.314z" fill="#fa759e"/><path d="m88.764 99.796h7.61c2.209 0 4 1.791 4 4v2.537h-15.61v-2.537c0-2.209 1.791-4 4-4z" fill="#ffd7e5"/><path d="m72.569 116.674h40v-2.341c0-4.418-3.582-8-8-8h-24c-4.418 0-8 3.582-8 8z" fill="#fa759e"/><path d="m75.081 116.674h34.976v4.159h-34.976z" fill="#ffd7e5"/></g><g><g><circle cx="53.764" cy="91.729" fill="#0089ef" r="14"/></g><g><path d="m53.764 80.729c7.225 0 13.168 5.474 13.917 12.5.053-.493.083-.993.083-1.5 0-7.732-6.268-14-14-14s-14 6.268-14 14c0 .507.03 1.007.083 1.5.749-7.026 6.692-12.5 13.917-12.5z" fill="#fff"/></g><g><path d="m51.765 98.885c-.396 0-.778-.157-1.061-.439l-5.536-5.536c-.586-.585-.586-1.535 0-2.121.585-.586 1.535-.586 2.121 0l4.308 4.307 7.314-9.847c.494-.666 1.434-.803 2.099-.31.665.494.804 1.434.31 2.099l-8.35 11.241c-.26.35-.659.569-1.094.602-.038.003-.074.004-.111.004z" fill="#fff"/></g><g fill="#3a2c60"><path d="m97.098 32.792c-.553 0-1 .448-1 1v7.875c0 .552.447 1 1 1s1-.448 1-1v-7.875c0-.553-.448-1-1-1z"/><path d="m53.764 15.167c2.206 0 4-1.794 4-4s-1.794-4-4-4-4 1.794-4 4 1.795 4 4 4zm0-6c1.103 0 2 .897 2 2s-.897 2-2 2-2-.897-2-2 .897-2 2-2z"/><path d="m25.264 39.104v7.25c0 1.654 1.346 3 3 3h7.25c1.654 0 3-1.346 3-3v-6.785l2.066-2.221c.376-.405.353-1.037-.051-1.414-.404-.375-1.036-.353-1.414.051l-1.221 1.313c-.548-.721-1.406-1.194-2.38-1.194h-7.25c-1.654 0-3 1.346-3 3zm11.197-.264-4.352 4.68-2.353-2.606c-.369-.41-1.001-.443-1.412-.072-.41.37-.442 1.002-.072 1.412l3.083 3.417c.188.208.454.328.735.33h.007c.278 0 .543-.116.732-.319l3.684-3.961v4.634c0 .551-.449 1-1 1h-7.25c-.551 0-1-.449-1-1v-7.25c0-.551.449-1 1-1h7.25c.459-.001.829.314.948.735z"/><path d="m45.264 39.729h36c.553 0 1-.448 1-1s-.447-1-1-1h-36c-.552 0-1 .448-1 1s.448 1 1 1z"/><path d="m45.264 47.729h36c.553 0 1-.448 1-1s-.447-1-1-1h-36c-.552 0-1 .448-1 1s.448 1 1 1z"/><path d="m45.264 61.729h36c.553 0 1-.448 1-1s-.447-1-1-1h-36c-.552 0-1 .448-1 1s.448 1 1 1z"/><path d="m45.264 69.729h33c.553 0 1-.448 1-1s-.447-1-1-1h-33c-.552 0-1 .448-1 1s.448 1 1 1z"/><path d="m40.58 59.348c.376-.404.353-1.037-.051-1.414-.404-.375-1.036-.353-1.414.051l-1.221 1.313c-.548-.721-1.406-1.194-2.38-1.194h-7.25c-1.654 0-3 1.346-3 3v7.25c0 1.654 1.346 3 3 3h7.25c1.654 0 3-1.346 3-3v-6.785zm-4.066 9.006c0 .551-.449 1-1 1h-7.25c-.551 0-1-.449-1-1v-7.25c0-.551.449-1 1-1h7.25c.458 0 .828.315.946.736l-4.352 4.679-2.353-2.606c-.369-.409-1.002-.442-1.412-.072s-.442 1.002-.072 1.412l3.083 3.417c.188.208.454.328.735.33h.007c.278 0 .543-.116.732-.319l3.684-3.961v4.634z"/><path d="m104.568 105.333h-3.194v-1.537c0-2.336-1.618-4.288-3.787-4.834l1.34-5.943c.665-2.95 2.002-5.941 3.974-8.89 1.363-2.038 2.083-4.413 2.083-6.87 0-3.533-1.512-6.909-4.148-9.263-.829-.74-1.756-1.343-2.737-1.83v-20c0-.552-.447-1-1-1s-1 .448-1 1v19.206c-1.596-.473-3.288-.638-4.977-.445-.008.001-.016.003-.023.004v-42.431c0-1.654-1.346-3-3-3h-8.834v-5h13.834c1.654 0 3 1.346 3 3v11.667c0 .552.447 1 1 1s1-.448 1-1v-11.667c0-2.757-2.243-5-5-5h-14.065c-.615-2.064-2.509-3.583-4.771-3.583h-10.764c-1.033-4.475-5.073-7.75-9.734-7.75s-8.702 3.275-9.734 7.75h-10.767c-2.262 0-4.155 1.519-4.771 3.583h-14.062c-2.757 0-5 2.243-5 5v99.333c0 2.757 2.243 5 5 5h95.626c.553 0 1-.448 1-1v-3.159h1.512c.553 0 1-.448 1-1v-2.342c-.001-4.962-4.038-8.999-9.001-8.999zm-5.194-1.537v1.537h-13.61v-1.537c0-1.654 1.346-3 3-3h7.61c1.654 0 3 1.346 3 3zm-8.028-36.881c3.021-.346 5.914.572 8.156 2.574 2.213 1.976 3.481 4.808 3.481 7.771 0 2.06-.604 4.05-1.745 5.758-2.109 3.153-3.543 6.37-4.263 9.562l-1.401 6.216h-6.011l-1.454-6.45c-.701-3.109-2.103-6.226-4.167-9.265-1.426-2.099-2.017-4.557-1.71-7.11.565-4.712 4.398-8.521 9.114-9.056zm-61.082-52.998c0-1.654 1.346-3 3-3h11.597c.499 0 .921-.368.99-.862.547-3.927 3.949-6.888 7.913-6.888s7.366 2.961 7.913 6.888c.069.494.491.862.99.862h11.596c1.654 0 3 1.346 3 3v8.5c0 .551-.448 1-1 1h-45c-.551 0-1-.449-1-1v-8.5zm1 11.5h45c1.654 0 3-1.346 3-3v-.917h8.834c.552 0 1 .449 1 1v42.836c-4.67 1.365-8.261 5.466-8.852 10.396-.359 2.995.365 6.004 2.042 8.472 1.923 2.83 3.225 5.717 3.87 8.58l1.392 6.177c-2.169.546-3.787 2.498-3.787 4.834v1.537h-3.195c-4.451 0-8.147 3.251-8.865 7.5h-52.272c-.551 0-1-.449-1-1v-89.332c0-.551.449-1 1-1h8.833v.917c0 1.654 1.346 3 3 3zm-19.833 91.416v-99.333c0-1.654 1.346-3 3-3h13.833v5h-8.833c-1.654 0-3 1.346-3 3v89.333c0 1.654 1.346 3 3 3h52.138v1.841c0 .552.447 1 1 1h1.513v2.159h-59.65c-1.656 0-3.001-1.346-3.001-3zm97.626 3h-32.976v-2.159h32.976zm2.511-4.159h-38v-1.342c0-3.86 3.141-7 7-7h24c3.859 0 7 3.14 7 7z"/><path d="m53.764 106.729c8.271 0 15-6.729 15-15s-6.729-15-15-15-15 6.729-15 15 6.729 15 15 15zm0-28c7.168 0 13 5.832 13 13s-5.832 13-13 13-13-5.832-13-13 5.832-13 13-13z"/></g></g></g></g></svg>