<svg id="Layer_1" height="512" viewBox="0 0 512 512" width="512" xmlns="http://www.w3.org/2000/svg" data-name="Layer 1"><path d="m348.41 288.52h-184.82a50.138 50.138 0 0 0 -50.13 50.13v157.35h285.08v-157.35a50.138 50.138 0 0 0 -50.13-50.13z" fill="#a5e2fb"/><path d="m193.59 288.52h-30a50.138 50.138 0 0 0 -50.13 50.13v157.35h30v-157.35a50.138 50.138 0 0 1 50.13-50.13z" fill="#80b2c1"/><path d="m274.61 33.98h-37.21c-36.79 8.11-65.45 39.78-71.36 79.49v.09h179.92v-.09c-5.91-39.71-34.56-71.37-71.35-79.49z" fill="#f3ce7d"/><path d="m347.03 113.56h-182.06a9.649 9.649 0 0 0 -9.65 9.65v10.61h201.36v-10.61a9.649 9.649 0 0 0 -9.65-9.65z" fill="#5fa8ed"/><path d="m280.68 113.56q1.425 9.1 3.17 18.17l.4 2.09h-56.5l.4-2.09q1.74-9.06 3.17-18.17a510.037 510.037 0 0 0 6.08-78.46v-1.74a17.357 17.357 0 0 1 17.36-17.36h2.48a17.366 17.366 0 0 1 17.37 17.36v1.74a510.027 510.027 0 0 0 6.07 78.46z" fill="#d8a43d"/><circle cx="256" cy="102.03" fill="#6addc7" r="15.93"/><path d="m291.07 254.08-69.84.12-.31.63v45.95a35.125 35.125 0 1 0 70.25 0v-46.49z" fill="#efc597"/><path d="m349.12 160.8a19.732 19.732 0 0 1 -15.68 24.11v.12a77.415 77.415 0 1 1 -154.83 0v-.12a19.745 19.745 0 0 1 -15.73-24.11 14.546 14.546 0 0 1 7.22-9.45h171.8a14.546 14.546 0 0 1 7.22 9.45z" fill="#ffd8b7"/><path d="m348.5 380.87h-183.75a4 4 0 0 0 -4 4v111.13h191.75v-111.13a4.005 4.005 0 0 0 -4-4z" fill="#e87187"/><path d="m340.87 288.84v92.03h-24.54v-92.03-.32h24.54z" fill="#b0b5ca"/><path d="m195.67 288.84v92.03h-24.54v-92.03-.32h24.54z" fill="#b0b5ca"/><path d="m307.62 495.95v.05h-103.24v-.05-38.43h103.24z" fill="#80aaff"/><path d="m204.38 436.28h103.24v21.24h-103.24z" fill="#6994fe"/><path d="m358.17 133.82h-204.34a8.765 8.765 0 1 0 0 17.53h204.34a8.765 8.765 0 1 0 0-17.53z" fill="#4689d3"/><path d="m251.23 254.2a77.463 77.463 0 0 1 -41.459-55.738 427.013 427.013 0 0 0 -9.378-42.532l-1.293-4.58h-29a14.546 14.546 0 0 0 -7.22 9.45 19.745 19.745 0 0 0 15.73 24.11v.12a77.443 77.443 0 0 0 92.415 75.959 76.747 76.747 0 0 1 -19.795-6.789z" fill="#c6a891"/><g fill="#284268"><path d="m135.549 353.015a6 6 0 0 0 -6 6v69.321a6 6 0 0 0 12 0v-69.321a6 6 0 0 0 -6-6z"/><path d="m135.549 325.41a6 6 0 0 0 -6 6v6.267a6 6 0 0 0 12 0v-6.267a6 6 0 0 0 -6-6z"/><path d="m113.462 501h285.076a6 6 0 0 0 6-6v-43.1a6 6 0 1 0 -12 0v37.1h-34.038v-105.127a10 10 0 0 0 -10-10h-1.623v-80.353h1.534a44.132 44.132 0 0 1 44.132 44.132v64.248a6 6 0 0 0 12 0v-64.248a56.132 56.132 0 0 0 -56.132-56.132h-51.243v-24.962a83.505 83.505 0 0 0 42.151-68.094 25.746 25.746 0 0 0 15.627-30.092c-.169-.69-.378-1.361-.608-2.018h3.831a14.767 14.767 0 0 0 4.512-28.828v-5.319a15.662 15.662 0 0 0 -11.554-15.085c-7.372-38.272-35.152-69.185-70.9-78.92a23.4 23.4 0 0 0 -22.985-19.202h-2.483a23.4 23.4 0 0 0 -22.985 19.2c-35.748 9.735-63.528 40.649-70.9 78.922a15.662 15.662 0 0 0 -11.554 15.085v5.318a14.767 14.767 0 0 0 4.512 28.828h3.832c-.23.658-.439 1.328-.608 2.019a25.742 25.742 0 0 0 15.671 30.106 83.507 83.507 0 0 0 42.2 68.1v24.942h-51.333a56.132 56.132 0 0 0 -56.132 56.132v157.348a6 6 0 0 0 6 6zm188.154-12h-91.232v-26.482h91.232zm0-38.482h-91.232v-9.242h91.232zm20.717-157h12.539v80.353h-12.539zm28.348-171.313v4.608h-61.458q-.772-4.119-1.479-8.254h59.29a3.65 3.65 0 0 1 3.647 3.648zm-11.919-15.646h-52.909a505.044 505.044 0 0 1 -5.2-65.713c28.767 9.299 51.104 34.506 58.109 65.715zm-95.362-72.459v-1.736a11.377 11.377 0 0 1 11.359-11.364h2.483a11.376 11.376 0 0 1 11.364 11.364v1.736c0 17.035.861 34.113 2.553 51.106a21.872 21.872 0 0 0 -30.316 0c1.692-16.993 2.557-34.071 2.557-51.106zm22.537 66.932a9.932 9.932 0 1 1 -9.937-9.932 9.943 9.943 0 0 1 9.932 9.933zm-28.56 11.568a21.911 21.911 0 0 0 37.247 0q1.095 7.129 2.391 14.218h-42.029q1.296-7.089 2.391-14.218zm-6.031-71.75a505.422 505.422 0 0 1 -5.2 65.713h-52.908c7.005-31.211 29.344-56.419 58.108-65.715zm-70.027 81.36a3.652 3.652 0 0 1 3.647-3.647h59.292q-.7 4.135-1.479 8.254h-61.46zm-7.488 22.146a2.77 2.77 0 0 1 0-5.539h204.338a2.77 2.77 0 0 1 0 5.539zm30.777 39.677v-.118a6 6 0 0 0 -4.965-5.91 13.731 13.731 0 0 1 -10.933-16.776 8.494 8.494 0 0 1 3.134-4.873h168.312a8.491 8.491 0 0 1 3.133 4.87 13.727 13.727 0 0 1 -10.899 16.774 6 6 0 0 0 -4.954 5.908v.124a71.414 71.414 0 1 1 -142.828 0zm100.56 78.142v37.611a29.123 29.123 0 0 1 -58.245 0v-37.6a83.124 83.124 0 0 0 58.245-.015zm-83.5 31.347h13.256v6.264a41.123 41.123 0 0 0 82.245 0v-6.266h13.165v80.353h-108.667zm-24.539 0h12.539v80.353h-12.54zm-10.377 92.353h179.748v103.125h-32.884v-53.724a6 6 0 0 0 -6-6h-103.232a6 6 0 0 0 -6 6v53.724h-31.633zm-47.289-48.221a44.182 44.182 0 0 1 44.132-44.132h1.534v80.353h-.377a10.011 10.011 0 0 0 -10 10v105.125h-35.29z"/></g></svg>