<svg id="Capa_1" enable-background="new 0 0 512 512" height="512" viewBox="0 0 512 512" width="512" xmlns="http://www.w3.org/2000/svg"><g><g><path d="m467 170h-256v165c0 24.899 20.099 45 45 45h105v82l81.301-82h24.699c24.901 0 45-20.101 45-45v-120c0-24.901-20.099-45-45-45z" fill="#4d5e80"/></g><path d="m512 215v120c0 24.899-20.099 45-45 45h-24.699l-81.301 82v-292h106c24.901 0 45 20.099 45 45z" fill="#3d4566"/><path d="m346 50.391h-150-151c-24.814 0-45 20.186-45 45v180c0 24.814 20.186 45 45 45h54.789l81.211 81.211v-81.211h15 150c24.814 0 45-20.186 45-45v-180c0-24.814-20.186-45-45-45z" fill="#ED5197"/><path d="m391 275v-180c0-24.814-20.186-45-45-45h-150v270h150c24.814 0 45-20.186 45-45z" fill="#C3427C"/><path d="m191.605 150.605-21.21-21.21-34.395 34.394-34.395-34.394-21.21 21.21 34.394 34.395-34.394 34.395 21.21 21.21 34.395-34.394 34.395 34.394 21.21-21.21-34.394-34.395z" fill="#edf3f9"/><g><path d="m241 110h90v30h-90z" fill="#d8e2f0"/></g><g><path d="m241 170h90v30h-90z" fill="#d8e2f0"/></g><g><path d="m241 230h90v30h-90z" fill="#d8e2f0"/></g></g></svg>