<svg id="Capa_1" enable-background="new 0 0 512 512" height="512" viewBox="0 0 512 512" width="512" xmlns="http://www.w3.org/2000/svg"><g><path d="m429.941 19.398v418.429s-363.777 73.627-383.959 74.163c-.33.01-.659.01-.989.01h-.021c-10.24-.01-19.512-4.152-26.218-10.858-6.717-6.717-10.868-15.988-10.868-26.228v-455.516c0-10.714 8.684-19.398 19.398-19.398h383.258c10.715 0 19.399 8.684 19.399 19.398z" fill="#faf7f7"/><path d="m429.941 427.118v10.709s-363.777 73.627-383.959 74.163c-.33.01-.659.01-.989.01h-.021c-10.24-.01-19.512-4.152-26.218-10.858-6.717-6.717-10.868-15.988-10.868-26.228v-47.795h422.055z" fill="#dedbee"/><g><path d="m461.269 369.066-13.176-7.613c1.143-5.264 1.762-10.724 1.762-16.328s-.618-11.064-1.762-16.328l13.176-7.613c6.665-3.853 8.952-12.372 5.099-19.048l-9.344-16.194c-3.853-6.676-12.383-8.952-19.048-5.11l-13.186 7.613c-8.046-7.335-17.668-12.96-28.289-16.349v-15.205c0-7.695-6.243-13.938-13.938-13.938h-18.708c-7.695 0-13.938 6.243-13.938 13.938v15.205c-10.621 3.389-20.243 9.014-28.289 16.349l-13.176-7.613c-6.676-3.843-15.195-1.566-19.048 5.11l-9.354 16.194c-3.853 6.676-1.566 15.195 5.099 19.048l13.186 7.613c-1.144 5.264-1.762 10.724-1.762 16.328s.618 11.064 1.762 16.328l-13.186 7.613c-6.665 3.853-8.952 12.383-5.099 19.048l9.354 16.194c3.853 6.676 12.372 8.952 19.048 5.11l13.176-7.613c8.046 7.335 17.668 12.96 28.289 16.349v15.205c0 7.695 6.243 13.938 13.938 13.938h18.708c7.695 0 13.938-6.243 13.938-13.938v-15.205c10.621-3.389 20.243-9.014 28.289-16.349l13.186 7.613c6.665 3.843 15.195 1.566 19.048-5.11l9.344-16.194c3.853-6.666 1.566-15.196-5.099-19.048zm-88.06 8.437c-17.874 0-32.368-14.495-32.368-32.379s14.495-32.368 32.368-32.368c17.884 0 32.379 14.484 32.379 32.368-.001 17.884-14.495 32.379-32.379 32.379z" fill="#7a6d79"/></g><path d="m484.713 437.827c10.715 0 19.401 8.686 19.401 19.401v17.685c0 10.24-4.152 19.512-10.858 26.228-6.717 6.707-15.989 10.859-26.229 10.859h-422.054c20.48 0 37.076-16.607 37.076-37.087v-17.685c0-10.715 8.686-19.401 19.401-19.401z" fill="#faf7f7"/><g fill="#685e68"><path d="m239.269 38.899c-4.268 0-7.726 3.459-7.726 7.726v45.092c0 1.391-.7 2.643-1.827 3.269-1.994 1.104-4.6-1.184-4.891-1.449-3.157-2.869-8.043-2.637-10.914.521-2.869 3.158-2.636 8.045.522 10.914 3.537 3.215 8.587 5.824 14.109 5.824 2.815 0 5.754-.678 8.675-2.3 6.032-3.35 9.78-9.779 9.78-16.779v-45.091c-.002-4.268-3.461-7.727-7.728-7.727z"/><path d="m289.842 54.867c4.268 0 7.726-3.459 7.726-7.726s-3.459-7.726-7.726-7.726h-23.555c-4.268 0-7.726 3.459-7.726 7.726v55.903c0 4.267 3.459 7.726 7.726 7.726h23.555c4.268 0 7.726-3.459 7.726-7.726s-3.459-7.726-7.726-7.726h-15.829v-12.499h14.092c4.268 0 7.726-3.459 7.726-7.726s-3.459-7.726-7.726-7.726h-14.092v-12.5z"/><path d="m359.749 89.159c-3.27-2.74-8.144-2.312-10.884.959-.469.56-.976 1.084-1.505 1.555-2.716 2.419-6.197 3.645-10.344 3.645-11.295 0-20.483-9.188-20.483-20.483s9.188-20.483 20.483-20.483c4.106 0 8.063 1.208 11.447 3.493 3.535 2.389 8.338 1.458 10.727-2.077 2.388-3.536 1.459-8.339-2.077-10.727-5.947-4.018-12.896-6.142-20.097-6.142-19.815 0-35.936 16.121-35.936 35.936s16.121 35.935 35.936 35.935c7.938 0 15.067-2.613 20.622-7.559 1.089-.97 2.122-2.036 3.07-3.168 2.741-3.27 2.311-8.143-.959-10.884z"/><path d="m405.823 38.899h-31.157c-4.268 0-7.726 3.459-7.726 7.726s3.459 7.726 7.726 7.726h7.79v48.692c0 4.267 3.459 7.726 7.726 7.726s7.726-3.459 7.726-7.726v-48.691h7.914c4.268 0 7.726-3.459 7.726-7.726s-3.457-7.727-7.725-7.727z"/><path d="m133.764 61.288c0-12.345-10.415-22.389-23.218-22.389h-14.993c-2.053 0-4.023.817-5.473 2.272-1.45 1.454-2.261 3.426-2.254 5.48 0 .001-.018 56.393-.018 56.393 0 4.267 3.459 7.726 7.726 7.726 4.268 0 7.726-3.459 7.726-7.726v-14.184l16.976 19.288c1.527 1.735 3.66 2.622 5.803 2.622 1.813 0 3.634-.635 5.102-1.927 3.203-2.819 3.514-7.701.695-10.904l-13.653-15.513c9.061-3.053 15.581-11.373 15.581-21.138zm-23.219 6.936c-1.7 0-4.492.011-7.204.024-.013-2.634-.03-11.131-.038-13.896h7.242c4.209 0 7.766 3.176 7.766 6.936s-3.556 6.936-7.766 6.936z"/><path d="m55.955 38.899h-15.709c-2.053 0-4.022.817-5.472 2.272-1.45 1.454-2.261 3.426-2.255 5.479v56.394c0 4.267 3.459 7.726 7.726 7.726s7.726-3.459 7.726-7.726v-16.822c2.971-.015 6.112-.028 7.983-.028 13.211 0 23.959-10.608 23.959-23.648s-10.747-23.647-23.958-23.647zm0 31.843c-1.858 0-4.962.013-7.916.027-.015-3.065-.036-13.204-.044-16.417h7.961c4.611 0 8.506 3.753 8.506 8.195-.001 4.442-3.897 8.195-8.507 8.195z"/><path d="m174.435 38.899c-19.815 0-35.936 16.121-35.936 35.936s16.121 35.935 35.936 35.935 35.936-16.12 35.936-35.935-16.121-35.936-35.936-35.936zm0 56.418c-11.295 0-20.483-9.188-20.483-20.483s9.188-20.483 20.483-20.483 20.483 9.189 20.483 20.483-9.189 20.483-20.483 20.483z"/></g><path d="m380.268 141.692h-322.709c-4.268 0-7.726-3.459-7.726-7.726s3.459-7.726 7.726-7.726h322.708c4.268 0 7.726 3.459 7.726 7.726.001 4.266-3.458 7.726-7.725 7.726z" fill="#dedbee"/><path d="m194.076 281.959h-129.2c-12.001 0-21.729-9.728-21.729-21.729v-69.592c0-12.001 9.728-21.729 21.729-21.729h129.201c12.001 0 21.729 9.728 21.729 21.729v69.592c0 12-9.729 21.729-21.73 21.729z" fill="#ffd15b"/><path d="m394.631 206.439h-143.882c-4.268 0-7.726-3.459-7.726-7.726s3.459-7.726 7.726-7.726h143.882c4.268 0 7.726 3.459 7.726 7.726s-3.459 7.726-7.726 7.726z" fill="#685e68"/><path d="m339.134 236.243h-88.385c-4.268 0-7.726-3.459-7.726-7.726s3.459-7.726 7.726-7.726h88.385c4.268 0 7.726 3.459 7.726 7.726s-3.459 7.726-7.726 7.726z" fill="#685e68"/><g fill="#7a6d79"><path d="m250.749 324.628h-207.602c-4.268 0-7.726-3.459-7.726-7.726s3.459-7.726 7.726-7.726h207.602c4.268 0 7.726 3.459 7.726 7.726s-3.459 7.726-7.726 7.726z"/><path d="m250.749 384.237h-207.602c-4.268 0-7.726-3.459-7.726-7.726s3.459-7.726 7.726-7.726h207.602c4.268 0 7.726 3.459 7.726 7.726 0 4.266-3.459 7.726-7.726 7.726z"/><path d="m142.837 414.895h-99.69c-4.268 0-7.726-3.459-7.726-7.726s3.459-7.726 7.726-7.726h99.69c4.268 0 7.726 3.459 7.726 7.726s-3.458 7.726-7.726 7.726z"/></g><g><path d="m69.601 226.461h48.191v30.832h-48.191z" fill="#fe646f"/><path d="m141.16 198.027h48.191v59.266h-48.191z" fill="#bbec6c"/></g><path d="m264.109 354.432h-220.962c-4.268 0-7.726-3.459-7.726-7.726s3.459-7.726 7.726-7.726h220.962c4.268 0 7.726 3.459 7.726 7.726s-3.459 7.726-7.726 7.726z" fill="#7a6d79"/></g></svg>